PathFileType	4	(X/Y/Z)	/Users/itak/Documents/Research/Walk-IL/dataset/trc/00161_00008.trc
DataRate	CameraRate	NumFrames	NumMarkers	Units	OrigDataRate	OrigDataStartFrame	OrigNumFrames
100.000000	100.000000	4	53	mm	100.000000	427	570
Frame#	Time	RPSI			LPSI			L3			STRN			T10			C7			CLAV			RBAK			LBAK			LSHO			LUPA			LAEL			LAOL			LWTS			LWPS			LFRA			LIFD			LHPS			LHTS			RSHO			RUPA			RAEL			RAOL			RWTS			RWPS			RFRA			RIFD			RHTS			RHPS			RBHD			LFHD			RFHD			LBHD			LHIP			RHIP			RASI			LASI			LKNE			LTHI			LANK			LTIP			LTOE			LMT1			LMT5			LHEE			RKNE			RANK			RTIP			RTOE			RMT1			RMT5			RHEE			RTHI			
		X1	Y1	Z1	X2	Y2	Z2	X3	Y3	Z3	X4	Y4	Z4	X5	Y5	Z5	X6	Y6	Z6	X7	Y7	Z7	X8	Y8	Z8	X9	Y9	Z9	X10	Y10	Z10	X11	Y11	Z11	X12	Y12	Z12	X13	Y13	Z13	X14	Y14	Z14	X15	Y15	Z15	X16	Y16	Z16	X17	Y17	Z17	X18	Y18	Z18	X19	Y19	Z19	X20	Y20	Z20	X21	Y21	Z21	X22	Y22	Z22	X23	Y23	Z23	X24	Y24	Z24	X25	Y25	Z25	X26	Y26	Z26	X27	Y27	Z27	X28	Y28	Z28	X29	Y29	Z29	X30	Y30	Z30	X31	Y31	Z31	X32	Y32	Z32	X33	Y33	Z33	X34	Y34	Z34	X35	Y35	Z35	X36	Y36	Z36	X37	Y37	Z37	X38	Y38	Z38	X39	Y39	Z39	X40	Y40	Z40	X41	Y41	Z41	X42	Y42	Z42	X43	Y43	Z43	X44	Y44	Z44	X45	Y45	Z45	X46	Y46	Z46	X47	Y47	Z47	X48	Y48	Z48	X49	Y49	Z49	X50	Y50	Z50	X51	Y51	Z51	X52	Y52	Z52	X53	Y53	Z53	

428	4.27	403.2227783203125	1002.459167480469	78.31029510498047	392.0411376953125	1008.803771972656	-44.32971572875977	397.1821899414062	1042.2451171875	18.30237579345703	651.508544921875	1263.47119140625	-0.433493047952652	355.0324401855469	1201.08642578125	10.59922027587891	412.374755859375	1473.653076171875	-3.527111053466797	619.669677734375	1376.441772460938	-4.871045589447021	353.5926513671875	1293.4228515625	106.0565185546875	403.9916381835938	1449.319702148438	-104.3838043212891	480.5979309082031	1440.288330078125	-184.6690673828125	456.7618713378906	1307.45166015625	-259.4022827148438	500.568603515625	1095.4091796875	-291.6039733886719	460.1961059570312	1067.61767578125	-218.9861907958984	666.72900390625	899.711669921875	-270.2916564941406	591.8207397460938	857.1954956054688	-309.7519226074219	539.6412353515625	990.505126953125	-309.5171813964844	734.54345703125	728.4169311523438	-258.7755432128906	632.6661987304688	796.537841796875	-309.732666015625	698.17724609375	829.41259765625	-294.8499755859375	482.420166015625	1448.279541015625	177.7525329589844	463.4112548828125	1379.260131835938	244.4726867675781	432.552978515625	1092.588623046875	284.5530700683594	437.4959106445312	1086.369995117188	186.9738006591797	548.029541015625	852.9115600585938	275.5043334960938	469.5802001953125	845.2689819335938	315.9740295410156	450.1272277832031	1019.600891113281	303.491943359375	539.9664916992188	664.7420043945312	250.8093566894531	561.7021484375	755.8486328125	284.7686767578125	486.8292541503906	759.2064208984375	313.9018249511719	457.1549072265625	1624.822875976562	82.22892761230469	610.6653442382812	1697.928466796875	-55.86757278442383	619.9869384765625	1688.282836914062	73.03800964355469	438.5053100585938	1642.620483398438	-54.03838348388672	484.1696472167969	961.0490112304688	-173.0650024414062	571.0223999023438	965.7838134765625	183.6348419189453	641.962158203125	1000.449096679688	119.1259918212891	612.0216064453125	1000.31005859375	-139.1927490234375	430.7252197265625	474.7949523925781	-144.3968353271484	462.2284545898438	617.4223022460938	-169.6378326416016	139.41162109375	89.15297698974609	-106.5329818725586	290.5032348632812	283.6290893554688	-136.2208251953125	341.6106262207031	38.96830368041992	-87.98925018310547	300.6737365722656	44.02208709716797	-39.3695182800293	233.5566253662109	40.43548202514648	-145.7339630126953	97.43726348876953	119.6932983398438	-37.23406982421875	771.7929077148438	517.5596923828125	157.0298461914062	853.4208374023438	29.15532875061035	161.5918884277344	824.5407104492188	407.6290893554688	143.8338928222656	1058.362915039062	102.2911376953125	141.67529296875	1012.191345214844	83.95999145507812	91.17485809326172	960.2299194335938	44.73497772216797	196.5243072509766	803.5709228515625	29.83756065368652	89.44799041748047	688.1205444335938	772.0470581054688	181.8467254638672	
429	4.28	415.08349609375	1004.111145019531	79.97891235351562	404.9817810058594	1010.282592773438	-42.84828567504883	409.4588623046875	1043.56201171875	19.8408145904541	662.7471313476562	1265.117797851562	1.55498480796814	366.5115966796875	1201.841430664062	12.81449127197266	422.9855041503906	1474.715209960938	-1.057851552963257	630.510986328125	1377.9658203125	-2.890912055969238	364.9523620605469	1294.35888671875	108.6068878173828	414.4008178710938	1450.295532226562	-101.8527450561523	490.7385864257812	1441.240356445312	-182.5241394042969	465.9281311035156	1307.90234375	-256.4081115722656	507.5133972167969	1095.4775390625	-287.4849243164062	467.9915466308594	1068.569091796875	-213.9929809570312	670.3143310546875	896.8635864257812	-267.8578491210938	593.9241943359375	855.7001342773438	-305.9303588867188	544.48876953125	989.9711303710938	-305.470947265625	734.374267578125	723.5968017578125	-256.5707092285156	633.4774780273438	794.2251586914062	-306.389892578125	699.8339233398438	825.6873168945312	-292.6562805175781	493.541015625	1449.534423828125	180.1104431152344	474.906982421875	1380.42919921875	246.8998413085938	444.8336791992188	1093.815673828125	287.0463256835938	449.1932373046875	1087.572631835938	189.4447631835938	558.9644165039062	853.5518188476562	277.4108581542969	480.9369506835938	846.6151733398438	318.797119140625	462.3630065917969	1020.942138671875	305.9436645507812	548.7821044921875	665.2964477539062	253.0426177978516	571.831787109375	756.2265014648438	286.5403137207031	497.4604187011719	760.4063720703125	316.6680908203125	467.1755981445312	1625.638061523438	84.89155578613281	619.5881958007812	1699.832153320312	-53.89448928833008	629.62255859375	1690.173950195312	74.92049407958984	447.7852172851562	1643.464965820312	-51.24720764160156	496.8050231933594	961.7090454101562	-171.3345794677734	582.7998657226562	968.1094360351562	185.6068115234375	653.8440551757812	1002.4052734375	121.2016983032227	624.5855102539062	1001.078186035156	-137.1585998535156	442.7723999023438	475.4228820800781	-145.4449005126953	474.5718078613281	618.19775390625	-169.1914672851562	143.2619323730469	95.11788940429688	-106.8276596069336	298.6437683105469	286.7566223144531	-137.0782775878906	341.5410766601562	39.11983489990234	-88.08721923828125	302.0332336425781	44.17147064208984	-39.31345748901367	235.1712493896484	42.02796936035156	-145.7558746337891	102.8452529907227	127.9405822753906	-37.56403350830078	783.3470458984375	518.8474731445312	157.8069915771484	854.785400390625	29.0168342590332	161.6596374511719	834.83447265625	407.9185180664062	144.0216064453125	1062.666015625	95.57420349121094	140.451904296875	1015.542846679688	78.7862548828125	90.28731536865234	962.51220703125	41.43090057373047	195.9199981689453	805.076171875	31.39693069458008	89.70317077636719	699.880859375	773.5989379882812	184.4504241943359	
430	4.29	426.8680725097656	1006.077270507812	81.47108459472656	417.8734741210938	1012.061340332031	-41.53463363647461	421.6146545410156	1045.197998046875	21.23126602172852	673.9644775390625	1267.088256835938	3.671439647674561	377.9680480957031	1202.8486328125	14.84366798400879	433.5173645019531	1475.98876953125	1.30463433265686	641.2898559570312	1379.807861328125	-0.8381575345993042	376.2598876953125	1295.53076171875	111.0021514892578	424.8303527832031	1451.5078125	-99.42218780517578	500.9594421386719	1442.490112304688	-180.3897399902344	475.2403869628906	1308.686645507812	-253.4856872558594	514.4781494140625	1095.89990234375	-283.2393493652344	475.884521484375	1069.927368164062	-208.8510437011719	673.54345703125	894.1770629882812	-265.3744506835938	595.6114501953125	854.5276489257812	-301.9523010253906	549.1836547851562	989.7914428710938	-301.2914123535156	733.521484375	718.9010620117188	-254.3025054931641	633.7413940429688	792.1929931640625	-302.8928833007812	700.9686279296875	822.1160278320312	-290.404296875	504.432373046875	1451.11767578125	182.3904113769531	486.177001953125	1381.968139648438	249.2747955322266	457.1482238769531	1095.3955078125	289.5866088867188	460.9298400878906	1089.112670898438	191.9615936279297	570.2570190429688	854.6832275390625	279.390869140625	492.705810546875	848.365478515625	321.7494812011719	474.7334899902344	1022.661071777344	308.4751586914062	558.1173095703125	666.3174438476562	255.4017028808594	582.4376831054688	757.10107421875	288.3932495117188	508.6123962402344	762.0338134765625	319.5881958007812	477.2428588867188	1626.784423828125	87.48834228515625	628.58447265625	1701.920043945312	-51.92144393920898	639.2758178710938	1692.271240234375	76.80551910400391	457.109375	1644.579345703125	-48.48846054077148	509.5155334472656	962.638916015625	-169.6419525146484	594.31640625	970.6444702148438	187.6557312011719	665.5429077148438	1004.716491699219	123.465690612793	637.1943969726562	1002.066955566406	-134.9051818847656	455.5416870117188	476.0103454589844	-146.7232818603516	487.3884887695312	618.9996948242188	-168.8245849609375	147.7641143798828	101.5331802368164	-106.7224349975586	307.459716796875	289.9854736328125	-137.91357421875	341.5014953613281	39.25984573364258	-88.17829132080078	303.6624755859375	44.31269836425781	-39.16513061523438	236.9851684570312	43.99940490722656	-145.6366577148438	109.2483901977539	136.5615997314453	-37.37963485717773	794.4541625976562	520.1077880859375	158.5997619628906	856.15283203125	28.92180633544922	161.78173828125	844.6387329101562	408.2135009765625	144.2025299072266	1066.435302734375	89.38170623779297	138.3948516845703	1018.249328613281	74.08625030517578	88.78060913085938	964.8411865234375	38.61532211303711	194.9822692871094	806.3814086914062	32.80360794067383	90.21585083007812	711.34521484375	775.1666259765625	187.2167205810547	
431	4.3	438.5501098632812	1008.261474609375	82.85689544677734	430.6000366210938	1014.037658691406	-40.32091903686523	433.6061401367188	1047.071655273438	22.54275703430176	685.1485595703125	1269.349975585938	5.894844532012939	389.388671875	1204.057739257812	16.71367454528809	443.9379272460938	1477.422729492188	3.558272123336792	651.9915771484375	1381.930053710938	1.272172570228577	387.4957275390625	1296.87841796875	113.2384414672852	435.24658203125	1452.912475585938	-97.09605407714844	511.22509765625	1444.013916015625	-178.2684020996094	484.6919250488281	1309.80859375	-250.6854553222656	521.476318359375	1096.674926757812	-278.8914184570312	483.8940734863281	1071.690673828125	-203.5838012695312	676.432861328125	891.6774291992188	-262.84130859375	596.93017578125	853.7098388671875	-297.8269958496094	553.7506713867188	989.9786376953125	-296.9966735839844	732.0314331054688	714.4381713867188	-251.9359741210938	633.500732421875	790.4783325195312	-299.2294006347656	701.6134033203125	818.7344360351562	-288.0682983398438	515.072021484375	1452.97900390625	184.581298828125	497.1925659179688	1383.830810546875	251.5837707519531	469.4290771484375	1097.28955078125	292.1710510253906	472.6640319824219	1090.942260742188	194.5264282226562	581.91552734375	856.2864379882812	281.4637145996094	504.8679504394531	850.468505859375	324.8083801269531	487.1747131347656	1024.70849609375	311.0861511230469	568.0604248046875	667.78125	257.8766479492188	593.5604248046875	758.4620361328125	290.3472900390625	520.2916259765625	764.0418090820312	322.6366271972656	487.3285217285156	1628.224731445312	90.00857543945312	637.6376342773438	1704.140258789062	-49.9688606262207	648.9312133789062	1694.523803710938	78.67655944824219	466.4522094726562	1645.93115234375	-45.78247833251953	522.2095947265625	963.7882080078125	-167.9550628662109	605.5921020507812	973.2603149414062	189.7936706542969	677.0465087890625	1007.264709472656	125.9052810668945	649.7456665039062	1003.257385253906	-132.4493103027344	469.0269470214844	476.4983215332031	-148.2318420410156	500.6358032226562	619.7659301757812	-168.5699310302734	152.9540557861328	108.409065246582	-106.2108154296875	316.9681396484375	293.2637023925781	-138.7169036865234	341.5626831054688	39.32941055297852	-88.2509765625	305.5958557128906	44.50959396362305	-38.95626831054688	239.0240020751953	46.43364715576172	-145.3612823486328	116.6814498901367	145.4988708496094	-36.68812942504883	804.9644165039062	521.2442016601562	159.3999938964844	857.5311889648438	28.92880058288574	161.9691619873047	853.8157348632812	408.4394836425781	144.3813018798828	1069.661987304688	83.73004913330078	135.803955078125	1020.395751953125	69.83974456787109	86.87926483154297	967.1165771484375	36.30494689941406	193.8967895507812	807.5108642578125	34.03494262695312	90.90592956542969	722.5272216796875	776.6782836914062	190.005615234375	
